{
    "asset" : {
        "generator" : "Khronos glTF Blender I/O v3.3.32",
        "version" : "2.0"
    },
    "extensionsUsed" : [
        "KHR_materials_specular",
        "KHR_materials_ior"
    ],
    "scene" : 0,
    "scenes" : [
        {
            "name" : "Scene",
            "nodes" : [
                0
            ]
        }
    ],
    "nodes" : [
        {
            "mesh" : 0,
            "name" : "model",
            "scale" : [
                1.8065005540847778,
                0.10541540384292603,
                1.2010325193405151
            ]
        }
    ],
    "materials" : [
        {
            "doubleSided" : true,
            "name" : "Material",
            "pbrMetallicRoughness" : {
                "baseColorFactor" : [
                    1,
                    0.8468727469444275,
                    0.6653875112533569,
                    1
                ],
                "metallicFactor" : 0,
                "roughnessFactor" : 0.5
            }
        },
        {
            "doubleSided" : true,
            "emissiveFactor" : [
                0.0025495044459473704,
                0.10665948613963394,
                0.061229047631961464
            ],
            "extensions" : {
                "KHR_materials_specular" : {
                    "specularColorFactor" : [
                        1.640194709702313,
                        2.114079427160481,
                        1.9072905086920169
                    ]
                },
                "KHR_materials_ior" : {
                    "ior" : 1.4500000476837158
                }
            },
            "name" : "Material.001",
            "pbrMetallicRoughness" : {
                "baseColorFactor" : [
                    0.0018210751004517078,
                    0.07618536800146103,
                    0.043735045939683914,
                    1
                ],
                "metallicFactor" : 0.11811023950576782,
                "roughnessFactor" : 0.5
            }
        },
        {
            "doubleSided" : true,
            "name" : "Material.003",
            "pbrMetallicRoughness" : {
                "baseColorFactor" : [
                    0.21223078668117523,
                    0.012286428362131119,
                    0.012286492623388767,
                    1
                ],
                "metallicFactor" : 0,
                "roughnessFactor" : 0.5
            }
        },
        {
            "doubleSided" : true,
            "name" : "Material.002",
            "pbrMetallicRoughness" : {
                "baseColorFactor" : [
                    0.0018210751004517078,
                    0.07618536800146103,
                    0.043735045939683914,
                    1
                ],
                "metallicFactor" : 0,
                "roughnessFactor" : 0.5
            }
        }
    ],
    "meshes" : [
        {
            "name" : "Cube",
            "primitives" : [
                {
                    "attributes" : {
                        "POSITION" : 0,
                        "NORMAL" : 1,
                        "TEXCOORD_0" : 2
                    },
                    "indices" : 3,
                    "material" : 0
                },
                {
                    "attributes" : {
                        "POSITION" : 4,
                        "NORMAL" : 5,
                        "TEXCOORD_0" : 6
                    },
                    "indices" : 7,
                    "material" : 1
                },
                {
                    "attributes" : {
                        "POSITION" : 8,
                        "NORMAL" : 9,
                        "TEXCOORD_0" : 10
                    },
                    "indices" : 7,
                    "material" : 2
                },
                {
                    "attributes" : {
                        "POSITION" : 11,
                        "NORMAL" : 12,
                        "TEXCOORD_0" : 13
                    },
                    "indices" : 14,
                    "material" : 3
                }
            ]
        }
    ],
    "accessors" : [
        {
            "bufferView" : 0,
            "componentType" : 5126,
            "count" : 2904,
            "max" : [
                1,
                1,
                1
            ],
            "min" : [
                -1,
                -1,
                -1
            ],
            "type" : "VEC3"
        },
        {
            "bufferView" : 1,
            "componentType" : 5126,
            "count" : 2904,
            "type" : "VEC3"
        },
        {
            "bufferView" : 2,
            "componentType" : 5126,
            "count" : 2904,
            "type" : "VEC2"
        },
        {
            "bufferView" : 3,
            "componentType" : 5123,
            "count" : 4356,
            "type" : "SCALAR"
        },
        {
            "bufferView" : 4,
            "componentType" : 5126,
            "count" : 432,
            "max" : [
                0.7181057333946228,
                1.454355001449585,
                0.4658382534980774
            ],
            "min" : [
                -0.690302848815918,
                0.8710286021232605,
                -0.6511587500572205
            ],
            "type" : "VEC3"
        },
        {
            "bufferView" : 5,
            "componentType" : 5126,
            "count" : 432,
            "type" : "VEC3"
        },
        {
            "bufferView" : 6,
            "componentType" : 5126,
            "count" : 432,
            "type" : "VEC2"
        },
        {
            "bufferView" : 7,
            "componentType" : 5123,
            "count" : 828,
            "type" : "SCALAR"
        },
        {
            "bufferView" : 8,
            "componentType" : 5126,
            "count" : 432,
            "max" : [
                0.47163423895835876,
                1.454355001449585,
                0.4658382534980774
            ],
            "min" : [
                -0.44383132457733154,
                0.8710286021232605,
                -0.6511587500572205
            ],
            "type" : "VEC3"
        },
        {
            "bufferView" : 9,
            "componentType" : 5126,
            "count" : 432,
            "type" : "VEC3"
        },
        {
            "bufferView" : 10,
            "componentType" : 5126,
            "count" : 432,
            "type" : "VEC2"
        },
        {
            "bufferView" : 11,
            "componentType" : 5126,
            "count" : 2392,
            "max" : [
                0.6952717900276184,
                1.5447351932525635,
                0.7871912121772766
            ],
            "min" : [
                -0.6728707551956177,
                0.9154764413833618,
                0.591571033000946
            ],
            "type" : "VEC3"
        },
        {
            "bufferView" : 12,
            "componentType" : 5126,
            "count" : 2392,
            "type" : "VEC3"
        },
        {
            "bufferView" : 13,
            "componentType" : 5126,
            "count" : 2392,
            "type" : "VEC2"
        },
        {
            "bufferView" : 14,
            "componentType" : 5123,
            "count" : 3996,
            "type" : "SCALAR"
        }
    ],
    "bufferViews" : [
        {
            "buffer" : 0,
            "byteLength" : 34848,
            "byteOffset" : 0,
            "target" : 34962
        },
        {
            "buffer" : 0,
            "byteLength" : 34848,
            "byteOffset" : 34848,
            "target" : 34962
        },
        {
            "buffer" : 0,
            "byteLength" : 23232,
            "byteOffset" : 69696,
            "target" : 34962
        },
        {
            "buffer" : 0,
            "byteLength" : 8712,
            "byteOffset" : 92928,
            "target" : 34963
        },
        {
            "buffer" : 0,
            "byteLength" : 5184,
            "byteOffset" : 101640,
            "target" : 34962
        },
        {
            "buffer" : 0,
            "byteLength" : 5184,
            "byteOffset" : 106824,
            "target" : 34962
        },
        {
            "buffer" : 0,
            "byteLength" : 3456,
            "byteOffset" : 112008,
            "target" : 34962
        },
        {
            "buffer" : 0,
            "byteLength" : 1656,
            "byteOffset" : 115464,
            "target" : 34963
        },
        {
            "buffer" : 0,
            "byteLength" : 5184,
            "byteOffset" : 117120,
            "target" : 34962
        },
        {
            "buffer" : 0,
            "byteLength" : 5184,
            "byteOffset" : 122304,
            "target" : 34962
        },
        {
            "buffer" : 0,
            "byteLength" : 3456,
            "byteOffset" : 127488,
            "target" : 34962
        },
        {
            "buffer" : 0,
            "byteLength" : 28704,
            "byteOffset" : 130944,
            "target" : 34962
        },
        {
            "buffer" : 0,
            "byteLength" : 28704,
            "byteOffset" : 159648,
            "target" : 34962
        },
        {
            "buffer" : 0,
            "byteLength" : 19136,
            "byteOffset" : 188352,
            "target" : 34962
        },
        {
            "buffer" : 0,
            "byteLength" : 7992,
            "byteOffset" : 207488,
            "target" : 34963
        }
    ],
    "buffers" : [
        {
            "byteLength" : 215480,
            "uri" : "data:application/octet-stream;base64,"
        }
    ]
}
